# xmcd
#
# Track frame offsets:
#	150
#	16762
#	37910
#	60706
#	85030
#	111226
#	127219
#	157961
#	186850
#	211186
#	231506
#	289869
#
# Disc length: 4099 seconds
#
# Revision: 0
# Processed by: cddbd v1.5.1PL0 Copyright (c) Steve Scherf et al.
# Submitted via: dBpowerAMP V4.0
#
DISCID=a110010c
DTITLE=Jeff Daniels - Live and Unplugged 
DYEAR=2004
DGENRE=Blues
TTITLE0=If William Shatner Can, I Can Too
TTITLE1=The Lifelong Tiger Fan Blues
TTITLE2=Momma Never Left Her Olderst Boy Alone
TTITLE3=The Dirty Harry Blues
TTITLE4=Kathy
TTITLE5=If I Weren't so Stupid, You Wouldn't be so Smart
TTITLE6=Blue Valiant
TTITLE7=You Can Drink an Ugly Girl Pretty
TTITLE8=State Tropper
TTITLE9=If You're Comin'
TTITLE10=Recreational Vehicle
TTITLE11=Michigan, My Michigan
EXTD=
EXTT0=
EXTT1=
EXTT2=
EXTT3=
EXTT4=
EXTT5=
EXTT6=
EXTT7=
EXTT8=
EXTT9=
EXTT10=
EXTT11=
PLAYORDER=
